/* XPM */
static char *cutebuttons_png[] = {
/* columns rows colors chars-per-pixel */
"16 16 126 2",
"   c #323436",
".  c gray22",
"X  c #005100",
"o  c #005B00",
"O  c #006100",
"+  c #006200",
"@  c DarkGreen",
"#  c #006600",
"$  c #007A00",
"%  c #007C00",
"&  c #007E00",
"*  c #097900",
"=  c #0E7807",
"-  c #127300",
";  c #146A15",
":  c #57661E",
">  c #4E7414",
",  c #626A2E",
"<  c #4F5D57",
"1  c #726E5E",
"2  c #415774",
"3  c #415877",
"4  c #465A76",
"5  c #475B76",
"6  c #465B78",
"7  c #6F786F",
"8  c gray46",
"9  c #767676",
"0  c #797979",
"q  c #7A7A79",
"w  c #78787B",
"e  c #79787C",
"r  c #B86612",
"t  c #E0760C",
"y  c #008100",
"u  c #008200",
"i  c #0B8C0F",
"p  c #0E9C0E",
"a  c #1F8D1F",
"s  c #049714",
"d  c #0C9910",
"f  c #3B853B",
"g  c #26BB2D",
"h  c #37AD37",
"j  c #37A53B",
"k  c #3DB431",
"l  c #6B9A3A",
"z  c #38C538",
"x  c #448744",
"c  c #579955",
"v  c #52AF55",
"b  c #5BB85B",
"n  c #66A74D",
"m  c #758375",
"M  c #728974",
"N  c #67B66A",
"B  c #46C245",
"V  c #48C655",
"C  c #50C856",
"Z  c #55CC54",
"A  c #50CC58",
"S  c #67C967",
"D  c #66CF66",
"F  c #6AD16A",
"G  c #67DC6F",
"H  c #73D973",
"J  c #7CD97B",
"K  c #909300",
"L  c #ABAC17",
"P  c #A58722",
"I  c #C39C12",
"U  c #F19C14",
"Y  c #EEAE00",
"T  c #FFBA00",
"R  c #FFB017",
"E  c #F2AA22",
"W  c #F9BF3A",
"Q  c #FFC500",
"!  c #A9D865",
"~  c #BBD87B",
"^  c gray52",
"/  c #829482",
"(  c #8F8D90",
")  c #949394",
"_  c #9D9C9D",
"`  c #AD9A85",
"'  c #A09991",
"]  c #8FB68F",
"[  c #93A793",
"{  c #97BA99",
"}  c #A4A4A6",
"|  c gray65",
" . c #B2B2B4",
".. c #B4B7B4",
"X. c #98D898",
"o. c #89E289",
"O. c #8FE48F",
"+. c #83E493",
"@. c #90E497",
"#. c #98E39B",
"$. c #98E798",
"%. c #9EE49E",
"&. c #A1C9A1",
"*. c #A5E6A4",
"=. c #A8EBAC",
"-. c #ACEEAC",
";. c #B2EEB3",
":. c #B5F1B5",
">. c #E4D095",
",. c #FAE4BA",
"<. c #BDAEC0",
"1. c #C3BCC3",
"2. c #D3C8D3",
"3. c #D3CCD3",
"4. c #DCCEDC",
"5. c #C9F5C9",
"6. c #C4F6D0",
"7. c #FFEFC6",
"8. c #E9E9E9",
"9. c #E7E9F2",
"0. c #E9ECF4",
"q. c #F3F3F3",
"w. c #F4F4F4",
"e. c #F2F5FC",
"r. c gray100",
"t. c None",
/* pixels */
"t.t.t.t.t.t.t.t.t.t.t.t.t.t.t.t.",
"' 3 5 6 5 2 ' t.t.t.t.Y T t.t.t.",
"t.7.9.,.r.r.t.t.t.t.-.6.~ @.t.t.",
"t.e.>.0.q.w.t.t.t.;.5.:.#.*.D t.",
". 0 0 9 9 0   t.! =.$.X.4.S b t.",
"t.t.t.t.t.t.t.I +.J F &.2.] ..t.",
"t.t.t.t.t.t.t.A Z z h v 7 a f t.",
"t.t.t.t.t.t.t.C o.O.N - % + # t.",
"t.t.t.t.t.t.L G %.H 8.{ x ; t.t.",
"t.t.t.t.t.t.V B j i c 3.1.[ t.t.",
"t.t.t.t.t.t.k g > : `  .} / t.t.",
"t.t.t.t.t.Q s p d <.} _ ) m t.t.",
"t.t.t.t.t.K u u $ M ( ^ e t.t.t.",
"t.t.t.t.* % % = n l 1 < , U t.t.",
"t.t.+ # + o X P W E t t.R r t.t.",
"t.t.t.t.t.t.t.t.t.t.t.t.t.t.t.t."
};
