<?xml version="1.0" encoding="UTF-8" standalone="no"?>
<svg width="27px" height="27px" viewBox="0 0 27 27" version="1.1" xmlns="http://www.w3.org/2000/svg" xmlns:xlink="http://www.w3.org/1999/xlink">
    <!-- Generator: Sketch 39.1 (31720) - http://www.bohemiancoding.com/sketch -->
    <title>SHARE</title>
    <desc>Created with Sketch.</desc>
    <defs>
        <rect id="path-1" x="0.961036313" y="0.5" width="26" height="26" rx="13"></rect>
    </defs>
    <g id="Page-1" stroke="none" stroke-width="1" fill="none" fill-rule="evenodd">
        <g id="WHITE" transform="translate(-1322.000000, -266.000000)">
            <g id="SHARE" transform="translate(1322.000000, 266.000000)">
                <g id="Group-4">
                    <mask id="mask-2" fill="white">
                        <use xlink:href="#path-1"></use>
                    </mask>
                    <use id="Mask" fill="#E91D00" xlink:href="#path-1"></use>
                    <path d="M9.00000002,16 C10.2711854,13.796612 13.8527027,12.7809612 15.5,11 C16.3903025,10.0374571 16,7.5 16,7.5 L32.4999995,21.5 L23.0000004,29.5 L8.5,20.5 C8.5,20.5 8.45821356,16.9390965 9.00000002,16 Z" id="Rectangle-246" fill="#B91700" mask="url(#mask-2)"></path>
                    <path d="M16.2507812,7.16586026 C16.13775,7.05529694 16.0039687,7 15.8493125,7 C15.6946563,7 15.5607813,7.05529694 15.4478438,7.16586026 C15.3348125,7.27648472 15.2782188,7.40740611 15.2782188,7.55865502 L15.2782188,9.79281659 L13.2796875,9.79281659 C9.0385625,9.79281659 8.4364375,10.9652096 7.47271875,13.3099345 C7.1575625,14.0894716 7,15.0583144 7,16.2161266 C7,17.1818821 7.37771875,18.4938472 8.13309375,20.152083 C8.15090625,20.1928908 8.18203125,20.2625546 8.22671875,20.361441 C8.271375,20.4602664 8.31146875,20.5475371 8.34715625,20.6232533 C8.38296875,20.698786 8.42165625,20.7627948 8.46325,20.8150961 C8.5345625,20.9140437 8.617875,20.9636245 8.7130625,20.9636245 C8.80228125,20.9636245 8.8721875,20.9345546 8.92278125,20.8763843 C8.97325,20.8182445 8.99853125,20.7454323 8.99853125,20.6583755 C8.99853125,20.6058603 8.99109375,20.5288908 8.9761875,20.4270087 C8.9613125,20.3251266 8.95384375,20.2569301 8.95384375,20.2219607 C8.9240625,19.826476 8.9091875,19.4683755 8.9091875,19.148607 C8.9091875,18.5610044 8.9613125,18.0344454 9.0653125,17.5690218 C9.16946875,17.1035066 9.3136875,16.7006856 9.498125,16.3602838 C9.68253125,16.0197598 9.920375,15.7261572 10.2119063,15.4788646 C10.5033125,15.2315721 10.8170313,15.0294585 11.1530938,14.8723406 C11.4892188,14.7151921 11.88475,14.5915459 12.3397812,14.5014017 C12.7947812,14.4112271 13.25275,14.348655 13.7137813,14.3137162 C14.1748125,14.2787773 12.69675,14.2614148 13.2796875,14.2614148 L15.2782187,14.2614148 L15.2782187,16.4956376 C15.2782187,16.6468865 15.3346875,16.7778384 15.447625,16.8883406 C15.56075,16.9987817 15.6945312,17.0541397 15.8490937,17.0541397 C16.0037187,17.0541397 16.1375937,16.9987817 16.2507812,16.8883406 L20.8188437,12.4198646 C20.931875,12.3093013 20.9883437,12.178441 20.9883437,12.0271616 C20.9883125,11.8759127 20.931875,11.7449607 20.8189375,11.6341834 L16.2507812,7.16586026 Z" id="Shape" fill="#FFFFFF" mask="url(#mask-2)"></path>
                </g>
            </g>
        </g>
    </g>
</svg>